<svg width="106" height="94" viewBox="0 0 106 94" fill="none" xmlns="http://www.w3.org/2000/svg">
<path d="M105.312 46.9031C105.312 39.9267 96.5754 33.3152 83.1806 29.2152C86.2717 15.5628 84.8979 4.70104 78.8445 1.22356C77.4492 0.407853 75.8178 0.0214656 74.0361 0.0214656V4.80838C75.0235 4.80838 75.8178 5.00157 76.4832 5.36649C79.4026 7.04083 80.6691 13.4162 79.6816 21.6162C79.4455 23.634 79.0591 25.7592 78.5869 27.9272C74.3795 26.8968 69.7858 26.1026 64.956 25.5874C62.0581 21.6162 59.0529 18.0099 56.0262 14.8544C63.0241 8.35026 69.5926 4.78691 74.0576 4.78691V0C68.1544 0 60.4267 4.20733 52.6131 11.5058C44.7995 4.25026 37.0717 0.0858642 31.1686 0.0858642V4.87277C35.612 4.87277 42.2021 8.41466 49.2 14.8759C46.1947 18.0314 43.1895 21.6162 40.3345 25.5874C35.4832 26.1026 30.8895 26.8968 26.6822 27.9487C26.1885 25.8021 25.8235 23.7199 25.566 21.7236C24.5571 13.5236 25.8021 7.14817 28.7 5.45235C29.344 5.06597 30.1811 4.89424 31.1686 4.89424V0.10733C29.3654 0.10733 27.734 0.493717 26.3173 1.30942C20.2853 4.78691 18.933 15.6272 22.0455 29.2366C8.69371 33.3581 0 39.9482 0 46.9031C0 53.8796 8.73664 60.4911 22.1314 64.5911C19.0403 78.2434 20.4141 89.1052 26.4675 92.5827C27.8628 93.3984 29.4942 93.7848 31.2974 93.7848C37.2005 93.7848 44.9283 89.5774 52.7419 82.279C60.5555 89.5345 68.2832 93.6989 74.1864 93.6989C75.9895 93.6989 77.6209 93.3125 79.0377 92.4968C85.0696 89.0193 86.422 78.179 83.3094 64.5696C96.6183 60.4696 105.312 53.8581 105.312 46.9031ZM77.3633 32.5853C76.5691 35.3544 75.5816 38.2094 74.4654 41.0644C73.5853 39.3471 72.6623 37.6298 71.6534 35.9126C70.6659 34.1953 69.6141 32.5209 68.5623 30.8895C71.6105 31.3403 74.5513 31.8984 77.3633 32.5853ZM67.5319 55.4466C65.8576 58.3445 64.1403 61.0921 62.3586 63.6466C59.1602 63.9256 55.9188 64.0759 52.656 64.0759C49.4146 64.0759 46.1733 63.9256 42.9963 63.668C41.2146 61.1136 39.4759 58.3874 37.8016 55.511C36.1701 52.6989 34.689 49.844 33.3366 46.9675C34.6675 44.0911 36.1701 41.2146 37.7801 38.4026C39.4544 35.5047 41.1717 32.7571 42.9534 30.2026C46.1518 29.9235 49.3932 29.7733 52.656 29.7733C55.8974 29.7733 59.1387 29.9235 62.3157 30.1811C64.0974 32.7356 65.8361 35.4618 67.5104 38.3382C69.1419 41.1502 70.623 44.0052 71.9754 46.8817C70.623 49.7581 69.1419 52.6345 67.5319 55.4466ZM74.4654 52.656C75.6246 55.5324 76.612 58.4089 77.4277 61.1995C74.6157 61.8864 71.6534 62.4659 68.5837 62.9167C69.6356 61.2639 70.6874 59.568 71.6748 57.8293C72.6623 56.112 73.5853 54.3733 74.4654 52.656ZM52.6989 75.5602C50.7026 73.4995 48.7063 71.2026 46.7314 68.6911C48.6633 68.7769 50.6382 68.8413 52.6345 68.8413C54.6523 68.8413 56.6487 68.7984 58.6021 68.6911C56.6701 71.2026 54.6738 73.4995 52.6989 75.5602ZM36.7283 62.9167C33.6801 62.4659 30.7393 61.9078 27.9272 61.2209C28.7215 58.4518 29.7089 55.5968 30.8251 52.7419C31.7052 54.4591 32.6283 56.1764 33.6372 57.8937C34.6461 59.611 35.6764 61.2853 36.7283 62.9167ZM52.5916 18.2461C54.5879 20.3068 56.5843 22.6037 58.5591 25.1152C56.6272 25.0293 54.6523 24.9649 52.656 24.9649C50.6382 24.9649 48.6419 25.0078 46.6885 25.1152C48.6204 22.6037 50.6167 20.3068 52.5916 18.2461ZM36.7068 30.8895C35.655 32.5424 34.6031 34.2382 33.6157 35.977C32.6283 37.6942 31.7052 39.4115 30.8251 41.1288C29.666 38.2523 28.6785 35.3759 27.8628 32.5853C30.6749 31.9199 33.6372 31.3403 36.7068 30.8895ZM17.2801 57.7649C9.68115 54.5235 4.76544 50.2733 4.76544 46.9031C4.76544 43.533 9.68115 39.2612 17.2801 36.0413C19.1262 35.2471 21.144 34.5387 23.2262 33.8733C24.4497 38.0806 26.0597 42.4597 28.056 46.9461C26.0811 51.411 24.4927 55.7686 23.2906 59.9544C21.1654 59.289 19.1476 58.5591 17.2801 57.7649ZM28.8288 88.4398C25.9094 86.7654 24.6429 80.39 25.6304 72.19C25.8665 70.1722 26.2529 68.0471 26.7251 65.879C30.9325 66.9094 35.5262 67.7036 40.356 68.2188C43.2539 72.19 46.2591 75.7963 49.2858 78.9518C42.2879 85.456 35.7194 89.0193 31.2544 89.0193C30.2885 88.9979 29.4728 88.8047 28.8288 88.4398ZM79.746 72.0827C80.7549 80.2827 79.5099 86.6581 76.612 88.3539C75.968 88.7403 75.1309 88.912 74.1434 88.912C69.7 88.912 63.1099 85.3701 56.112 78.9089C59.1173 75.7534 62.1225 72.1686 64.9775 68.1974C69.8288 67.6822 74.4225 66.8879 78.6298 65.8361C79.1235 68.0042 79.5099 70.0864 79.746 72.0827ZM88.0104 57.7649C86.1644 58.5591 84.1466 59.2675 82.0644 59.933C80.8408 55.7256 79.2309 51.3466 77.2345 46.8602C79.2094 42.3953 80.7979 38.0377 82 33.8518C84.1251 34.5173 86.1429 35.2471 88.0319 36.0413C95.6308 39.2827 100.547 43.533 100.547 46.9031C100.525 50.2733 95.6094 54.545 88.0104 57.7649Z" fill="#81D8F7"/>
<path d="M52.6345 56.7131C58.0524 56.7131 62.4445 52.321 62.4445 46.9031C62.4445 41.4852 58.0524 37.0932 52.6345 37.0932C47.2167 37.0932 42.8246 41.4852 42.8246 46.9031C42.8246 52.321 47.2167 56.7131 52.6345 56.7131Z" fill="#81D8F7"/>
</svg>
